<svg xmlns="http://www.w3.org/2000/svg" id="Icons" viewBox="0 0 215 215">
    <defs fill="#3756ee">
        <style>.cls-1{fill:#fff;fill-rule:evenodd;}</style>
    </defs>
    <g id="Instagram">
        <circle id="Background" cx="107.5" cy="107.5" r="107.5" fill="#2d57c8"/>
        <path id="Instagram-2" data-name="Instagram" class="cls-1"
              d="M384.5,53c14.8,0,16.66.06,22.47.33a39.85,39.85,0,0,1,13.23,2.53A27.92,27.92,0,0,1,436.14,71.8,39.85,39.85,0,0,1,438.67,85c.27,5.81.33,7.67.33,22.47s-.06,16.66-.33,22.47a39.85,39.85,0,0,1-2.53,13.23,27.92,27.92,0,0,1-15.94,15.94A39.85,39.85,0,0,1,407,161.67c-5.81.27-7.67.33-22.47.33s-16.66-.06-22.47-.33a39.85,39.85,0,0,1-13.23-2.53,27.92,27.92,0,0,1-15.94-15.94A39.85,39.85,0,0,1,330.33,130c-.27-5.81-.33-7.67-.33-22.47s.06-16.66.33-22.47a39.85,39.85,0,0,1,2.53-13.23A27.92,27.92,0,0,1,348.8,55.86,39.85,39.85,0,0,1,362,53.33C367.84,53.06,369.7,53,384.5,53Zm22,10.14c-5.74-.26-7.47-.32-22-.32s-16.28.06-22,.32A30.26,30.26,0,0,0,352.36,65,18.07,18.07,0,0,0,342,75.36a30.26,30.26,0,0,0-1.87,10.12c-.26,5.74-.32,7.47-.32,22s.06,16.28.32,22A30.26,30.26,0,0,0,342,139.64,18.07,18.07,0,0,0,352.36,150a30.26,30.26,0,0,0,10.12,1.87c5.74.26,7.47.32,22,.32s16.28-.06,22-.32A30.26,30.26,0,0,0,416.64,150,18.07,18.07,0,0,0,427,139.64a30.26,30.26,0,0,0,1.87-10.12c.26-5.74.32-7.47.32-22s-.06-16.28-.32-22A30.26,30.26,0,0,0,427,75.36,18.07,18.07,0,0,0,416.64,65,30.26,30.26,0,0,0,406.52,63.14Zm-22,62.53a18.17,18.17,0,1,0-18.17-18.17A18.18,18.18,0,0,0,384.5,125.67Zm0-46.16a28,28,0,1,1-28,28A28,28,0,0,1,384.5,79.51Zm35.63-1.1a6.54,6.54,0,1,1-6.54-6.54A6.54,6.54,0,0,1,420.13,78.41Z"
              transform="translate(-277)" fill="#3756ee"/>
    </g>
</svg>
