<svg xmlns="http://www.w3.org/2000/svg" id="Icons" viewBox="0 0 215 215"><defs fill="#3756ee"><style>.cls-1{fill:#fff;}</style></defs><g id="TikTok"><circle id="Background" cx="107.5" cy="107.5" r="107.5" fill="#3756ee"/><path id="TikTok-2" data-name="TikTok" class="cls-1" d="M419.1,353.05a27.23,27.23,0,0,1-12-17.87h0a26.36,26.36,0,0,1-.41-4.94H387.06v78.57A16.49,16.49,0,0,1,370.6,424.7a17,17,0,0,1-7.68-1.82,16.5,16.5,0,0,1,7.6-31.09,16.79,16.79,0,0,1,4.87.76V372.46a34,34,0,0,0-4.83-.41,36.07,36.07,0,0,0-34.48,25.24c-4.59,14.57.05,30.52,12.13,39.69.6.5,1.07.79,1.63,1.18a35.71,35.71,0,0,0,20.72,6.12,36.15,36.15,0,0,0,36.15-36.07V368.26A46.68,46.68,0,0,0,434,377V357.54A27,27,0,0,1,419.1,353.05Z" transform="translate(-277 -277)" fill="#3756ee"/></g></svg>