<svg xmlns="http://www.w3.org/2000/svg" id="Icons" viewBox="0 0 215 215"><defs fill="#3756ee"><style>.cls-1{fill:#fff;}</style></defs><g id="YouTube"><circle id="Background" cx="107.5" cy="107.5" r="107.5" fill="#3756ee"/><path id="YouTube-2" data-name="YouTube" class="cls-1" d="M1545.53,357.18a13.94,13.94,0,0,0-9.85-9.85C1527,345,1492.15,345,1492.15,345s-34.85,0-43.54,2.33a14,14,0,0,0-9.85,9.85c-2.33,8.69-2.33,26.82-2.33,26.82s0,18.13,2.33,26.82a14,14,0,0,0,9.85,9.85c8.69,2.33,43.54,2.33,43.54,2.33s34.84,0,43.53-2.33a13.94,13.94,0,0,0,9.85-9.85c2.33-8.69,2.33-26.82,2.33-26.82S1547.86,365.87,1545.53,357.18ZM1481,400.71V367.29L1510,384Z" transform="translate(-1385 -277)" fill="#3756ee"/></g></svg>